<svg width="100" height="100" viewBox="0 0 100 100" fill="none" xmlns="http://www.w3.org/2000/svg">
<g clip-path="url(#clip0_33_2)">
<rect width="100" height="100" rx="10" fill="#033DFC"/>
<mask id="mask0_33_2" style="mask-type:alpha" maskUnits="userSpaceOnUse" x="25" y="25" width="50" height="50">
<rect x="25" y="25" width="50" height="50" fill="#D9D9D9"/>
</mask>
<g mask="url(#mask0_33_2)">
<path d="M33.3333 68.75C32.1875 68.75 31.2066 68.342 30.3906 67.526C29.5746 66.7101 29.1667 65.7292 29.1667 64.5833V35.4167C29.1667 34.2708 29.5746 33.2899 30.3906 32.474C31.2066 31.658 32.1875 31.25 33.3333 31.25H66.6667C67.8125 31.25 68.7934 31.658 69.6094 32.474C70.4253 33.2899 70.8333 34.2708 70.8333 35.4167V64.5833C70.8333 65.7292 70.4253 66.7101 69.6094 67.526C68.7934 68.342 67.8125 68.75 66.6667 68.75H33.3333ZM33.3333 64.5833H66.6667V35.4167H33.3333V64.5833ZM37.5 60.4167H62.5V56.25H37.5V60.4167ZM37.5 52.0833H45.8333V39.5833H37.5V52.0833ZM50 52.0833H62.5V47.9167H50V52.0833ZM50 43.75H62.5V39.5833H50V43.75Z" fill="#000619"/>
</g>
</g>
<defs>
<clipPath id="clip0_33_2">
<rect width="100" height="100" fill="white"/>
</clipPath>
</defs>
</svg>
